<svg height="512pt" viewBox="-64 0 512 512" width="512pt" xmlns="http://www.w3.org/2000/svg"><g fill-rule="evenodd"><path d="m384.429688 113.683594c-.003907-.113282-.007813-.226563-.019532-.339844-.027344-.421875-.074218-.84375-.152344-1.253906-.003906-.011719-.003906-.019532-.003906-.027344-.085937-.421875-.207031-.832031-.34375-1.238281-.035156-.105469-.074218-.210938-.113281-.3125-.144531-.382813-.304687-.757813-.492187-1.121094-.011719-.023437-.019532-.046875-.03125-.070313-.203126-.382812-.4375-.742187-.691407-1.097656-.0625-.089844-.128906-.179687-.199219-.269531-.265624-.347656-.550781-.6875-.867187-1.003906l-104.019531-104.019531c-.3125-.316407-.65625-.601563-1.007813-.867188-.085937-.070312-.175781-.132812-.265625-.199219-.351562-.25-.714844-.488281-1.097656-.691406-.023438-.011719-.046875-.019531-.070312-.03125-.359376-.191406-.734376-.351563-1.117188-.492187-.105469-.039063-.210938-.078126-.316406-.113282-.40625-.136718-.816406-.257812-1.238282-.34375-.011718 0-.019531 0-.03125-.003906-.410156-.078125-.828124-.125-1.246093-.1523438-.117188-.0078124-.230469-.015625-.347657-.0195312-.109374-.0039062-.21875-.015625-.332031-.015625h-260.425781c-5.523438 0-10 4.476562-10 10v381.996094c0 5.523437 4.476562 10 10 10s10-4.476563 10-10v-371.996094h240.425781v94.019531c0 5.523438 4.476563 10 10 10h94.019531v20c0 5.523438 4.476563 10 10 10 5.523438 0 10-4.476562 10-10v-30c0-.113281-.011718-.222656-.015624-.335937zm-104.003907-9.664063v-69.878906l69.878907 69.878906zm0 0"/><path d="m374.445312 214.019531c-5.523437 0-10 4.476563-10 10v267.980469h-344.445312v-20.003906c0-5.519532-4.476562-10-10-10s-10 4.480468-10 10v30.003906c0 5.523438 4.476562 10 10 10h364.445312c5.523438 0 10-4.476562 10-10v-277.980469c0-5.523437-4.476562-10-10-10zm0 0"/><path d="m71.394531 387.34375 43.488281 43.484375c1.875 1.875 4.417969 2.929687 7.070313 2.929687s5.195313-1.054687 7.070313-2.929687l63.199218-63.195313 63.199219 63.195313c3.902344 3.90625 10.234375 3.90625 14.140625 0l43.488281-43.484375c3.902344-3.90625 3.902344-10.238281 0-14.144531l-63.199219-63.195313 63.199219-63.199218c1.875-1.875 2.929688-4.417969 2.929688-7.070313s-1.054688-5.199219-2.929688-7.074219l-43.488281-43.484375c-3.902344-3.902343-10.234375-3.90625-14.140625 0l-63.199219 63.199219-63.199218-63.199219c-3.90625-3.902343-10.234376-3.90625-14.140626 0l-43.488281 43.484375c-3.902343 3.90625-3.902343 10.238282 0 14.144532l63.199219 63.199218-63.199219 63.195313c-3.902343 3.90625-3.902343 10.238281 0 14.144531zm84.414063-70.269531c1.875-1.875 2.929687-4.417969 2.929687-7.070313s-1.054687-5.195312-2.929687-7.070312l-63.199219-63.199219 29.34375-29.34375 63.199219 63.199219c3.90625 3.902344 10.238281 3.902344 14.144531 0l63.195313-63.199219 29.347656 29.34375-63.199219 63.199219c-3.90625 3.90625-3.90625 10.238281 0 14.140625l63.199219 63.199219-29.347656 29.34375-63.195313-63.195313c-1.953125-1.953125-4.511719-2.929687-7.074219-2.929687-2.558594 0-5.117187.976562-7.070312 2.929687l-63.199219 63.199219-29.34375-29.347656zm0 0"/><path d="m10 441.996094c5.507812 0 10-4.488282 10-10 0-5.507813-4.492188-10-10-10s-10 4.492187-10 10c0 5.511718 4.492188 10 10 10zm0 0"/><path d="m374.445312 174.019531c-5.507812 0-10 4.492188-10 10 0 5.507813 4.492188 10 10 10 5.507813 0 10-4.492187 10-10 0-5.507812-4.492187-10-10-10zm0 0"/></g></svg>